<svg width="450" height="96" viewBox="0 0 450 96" fill="none" xmlns="http://www.w3.org/2000/svg">
<g clip-path="url(#clip0_134_134)">
<path d="M201.051 95.7556V83.6216H202.493V88.8774H209.281V83.6216H210.723V95.7556H209.281V90.1868H202.493V95.7556H201.051Z" fill="white"/>
<path d="M222.315 96.0001C220.607 96.0001 219.199 95.4075 218.09 94.2186C216.981 93.0315 216.427 91.524 216.427 89.6961C216.427 87.8682 216.981 86.3589 218.09 85.1662C219.199 83.9735 220.607 83.3772 222.315 83.3772C224.023 83.3772 225.418 83.9735 226.533 85.1662C227.647 86.3589 228.205 87.87 228.205 89.6961C228.205 91.5221 227.647 93.0315 226.533 94.2186C225.418 95.4057 224.012 96.0001 222.315 96.0001ZM222.315 94.6908C223.593 94.6908 224.641 94.2204 225.454 93.2778C226.27 92.3351 226.677 91.1425 226.677 89.6979C226.677 88.2534 226.27 87.0589 225.454 86.1107C224.641 85.1625 223.593 84.6884 222.315 84.6884C221.037 84.6884 220.004 85.1625 219.185 86.1107C218.364 87.0589 217.955 88.2553 217.955 89.6979C217.955 91.1406 218.365 92.3351 219.185 93.2778C220.005 94.2204 221.048 94.6908 222.315 94.6908Z" fill="white"/>
<path d="M233.906 95.7556V83.6216H235.348V94.4463H241.796V95.7556H233.904H233.906Z" fill="white"/>
<path d="M246.818 95.7556V83.6216H251.078C252.152 83.6216 253.137 83.8457 254.03 84.2938C254.923 84.742 255.659 85.4347 256.235 86.3717C256.813 87.3088 257.101 88.4182 257.101 89.6979C257.101 91.5832 256.516 93.0647 255.344 94.1407C254.174 95.2167 252.75 95.7556 251.076 95.7556H246.817H246.818ZM248.26 94.4463H250.806C251.45 94.4463 252.053 94.3592 252.613 94.1852C253.173 94.0111 253.679 93.7388 254.132 93.374C254.584 93.0073 254.941 92.5091 255.202 91.8813C255.461 91.2535 255.592 90.5201 255.592 89.6812C255.592 88.0515 255.14 86.8532 254.235 86.0847C253.33 85.3161 252.186 84.9328 250.808 84.9328H248.262V94.4481L248.26 94.4463Z" fill="white"/>
<path d="M262.805 95.7556V83.6216H264.247V95.7556H262.805Z" fill="white"/>
<path d="M270.561 95.7556V83.6216H272.122L278.57 93.4518V83.6216H279.945V95.7556H278.385L271.937 85.9254V95.7556H270.561Z" fill="white"/>
<path d="M291.383 96C289.709 96 288.334 95.4074 287.259 94.2185C286.184 93.0314 285.646 91.5239 285.646 89.696C285.646 87.8681 286.186 86.3439 287.266 85.1568C288.346 83.9697 289.724 83.3752 291.399 83.3752C292.791 83.3752 293.925 83.7123 294.802 84.3883C295.678 85.0642 296.276 86.0291 296.593 87.2866L295.201 87.7403C294.67 85.7032 293.403 84.6846 291.399 84.6846C290.156 84.6846 289.137 85.1531 288.345 86.0902C287.553 87.0273 287.157 88.2292 287.157 89.696C287.157 91.1627 287.563 92.4202 288.379 93.3277C289.194 94.2351 290.229 94.6889 291.484 94.6889C292.604 94.6889 293.579 94.3055 294.411 93.5369C295.243 92.7684 295.68 91.7165 295.727 90.3775H291.621V89.0682H297.102V95.7556H295.727V93.5555C295.297 94.3462 294.697 94.9518 293.929 95.3704C293.16 95.7889 292.31 95.9982 291.383 95.9982V96Z" fill="white"/>
<path d="M214.647 53.4735V66.9891H201.058V39.03C201.058 31.75 207.137 25.7941 214.647 25.6478V53.4735ZM255.182 66.9891H268.771V0H253.008L234.914 31.274L216.821 0H201.256L234.914 58.1811L255.182 23.1458V66.9872V66.9891Z" fill="white"/>
<path d="M290.727 34.8816H306.677C313.015 34.8816 318.199 29.8814 318.199 23.7662C318.199 17.651 313.015 12.6507 306.677 12.6507H277.138V0H306.677C320.228 0 331.309 10.6932 331.309 23.7643C331.309 31.5629 327.364 38.8467 320.723 43.2914L320.332 43.5544L333.795 66.9872H318.259L307.08 47.5305H290.727V66.9872H277.138V28.2202C277.138 20.9401 283.217 14.9842 290.727 14.8379V34.8798V34.8816Z" fill="white"/>
<path d="M340.84 28.2202C340.84 20.9401 346.919 14.9842 354.429 14.8379V26.8478H371.487C375.536 26.8478 378.846 23.6532 378.846 19.7493C378.846 15.8454 375.536 12.6489 371.487 12.6489H340.84V0H371.964C383.226 0 392.434 8.88385 392.434 19.7493C392.434 23.9477 391.044 28.0109 388.472 31.3963L388.198 31.7555L388.531 32.0648C392.664 35.8928 395.012 41.1561 395.012 46.6879C395.012 57.8571 385.545 66.9891 373.968 66.9891H340.838V28.222L340.84 28.2202ZM373.732 54.3383C377.962 54.3383 381.422 50.9992 381.422 46.9175C381.422 42.8358 377.962 39.4986 373.732 39.4986H354.429V42.9377V54.3383H373.732Z" fill="white"/>
<path d="M415.859 12.6489V66.9872H402.27V0H449.998V12.6489H415.859ZM447.134 39.819V27.1682H431.529C424.17 27.1682 418.075 32.7612 417.677 39.819H447.134Z" fill="white"/>
<path d="M97.3474 33.952L98.0602 33.3519L64.0468 9.13015L64.0036 9.04126L63.8344 9.05422L0 16.7973L0.441032 17.1491C8.12218 23.2773 19.688 26.0089 29.2287 23.9569L64.0162 16.4584L94.5554 36.2465L97.3456 33.9501L97.3474 33.952Z" fill="white"/>
<path d="M63.412 19.6104L24.5886 29.0573L24.9468 29.3591C30.7811 34.3168 39.3497 36.0336 46.2694 33.639L71.4982 24.9033L63.4138 19.603L63.4102 19.6067L63.412 19.6104Z" fill="white"/>
<path d="M61.0459 41.4894C61.3321 41.3745 61.6165 41.2449 61.8938 41.1116L81.6376 31.4425L74.8421 26.9885L45.2012 38.1577L45.5 38.4244C49.8689 42.345 55.9713 43.5506 61.0495 41.4894H61.0459Z" fill="white"/>
<path d="M73.3634 48.4528C73.9431 48.2176 74.5047 47.9231 75.0375 47.5805L90.7419 37.4077L84.9382 33.6038L61.803 45.7063L62.0532 45.9415C65.3438 49.0472 69.5741 49.9862 73.3598 48.4509H73.3634V48.4528Z" fill="white"/>
<path d="M91.7666 33.9521L91.0537 33.352L125.067 9.13211L125.11 9.04321L125.28 9.05618L189.114 16.8029L188.673 17.1548C180.992 23.2829 169.426 26.0146 159.885 23.9626L125.098 16.464L94.5586 36.2522L91.7684 33.9558V33.9521H91.7666Z" fill="white"/>
<path d="M125.703 19.6104L164.527 29.0573L164.169 29.3591C158.334 34.3168 149.766 36.0336 142.846 33.639L117.617 24.9033L125.702 19.603L125.705 19.6067L125.703 19.6104Z" fill="white"/>
<path d="M128.068 41.4896C127.782 41.3748 127.498 41.2452 127.221 41.1118L107.477 31.4427L114.272 26.9888L143.913 38.1579L143.614 38.4246C139.245 42.3452 133.143 43.5508 128.065 41.4896H128.068Z" fill="white"/>
<path d="M115.75 48.453C115.17 48.2178 114.609 47.9234 114.076 47.5807L98.3713 37.4079L104.175 33.604L127.31 45.7066L127.06 45.9418C123.769 49.0475 119.539 49.9864 115.753 48.4512H115.75V48.453Z" fill="white"/>
</g>
<defs>
<clipPath id="clip0_134_134">
<rect width="450" height="96" fill="white"/>
</clipPath>
</defs>
</svg>
